/* XPM */
static const char *down1[] = {
/* columns rows colors chars-per-pixel */
"32 31 16 1 ",
"  c black",
". c #313131",
"X c #471323",
"o c #591E30",
"O c #565656",
"+ c red",
"@ c #B8977F",
"# c #78D1D5",
"$ c gray74",
"% c #CCAB93",
"& c #DCBEA7",
"* c #CACACA",
"= c #EFEFEF",
"- c #F4F3F3",
"; c white",
": c #571414",
/* pixels */
"::::::::::::::::::::::::::::::::",
"::::::XXX:::::::::::::XXX:::::::",
":::oooXo-;:::::::::::;-oXooo::::",
"::ooXXXo--;:::::::::;--oXXXoo:::",
"::oXXXXoo:;:::+;;:::;:ooXoXXo:::",
":ooXooX::::::--+=;::::::XXoXoo::",
":o;;;X::::::--##==+::::::X;;;o::",
"o;##;;X:::::-+ =#+;:::::X;##;;o:",
"o; ;#;oX::::+=  #=;::::XX; ;#;o:",
"o;  #;oXXXX@$-=+==$@XXXXo;  #;o:",
"oo;;;oooXX%%@$-=+$$@%XXooo;;;oo:",
"o&oXoooXX&%@$$*$$*$@%&XooooXX&o:",
"%&oX&ooX&%%@$***$*@%%%&ooo&Xo&%:",
"%&%X&oo&%%@%@*$***@%@%%&oo&o%&%:",
":&&&%%%%%%X%@**$*$@%X%%%%%%&&&::",
"::%%&&&%%XX@%$*$*@%@XX%%&&&%%:::",
":::o&%%%oXXX@%$**%@XXXo%%%&o::::",
":::ooXXoXX:: @@*@@ ::XXooXoo::::",
"::::ooXXX::    $    ::XXoXo:::::",
":::::oXX:: .         ::XXX::::::",
":::::::::: ...   ..  :::::::::::",
"::::::::: O...:::.....::::::::::",
":::::::::OOOO:::::....::::::::::",
"::::::::: OO.:::::OOO.::::::::::",
"::::::::::.O..:::.OOO:::::::::::",
":::::::::::....:....::::::::::::",
"::::::::::::.. : ..:::::::::::::",
":::::::::::::  :  ::::::::::::::",
":::::::::::::  :  ::::::::::::::",
"::::::::::::::::::::::::::::::::",
"::::::::::::::::::::::::::::::::"
};
