/* XPM */
static const char *left[] = {
/* columns rows colors chars-per-pixel */
"32 32 17 1 ",
"  c black",
". c gray22",
"X c #471323",
"o c #591E30",
"O c gray46",
"+ c red",
"@ c #AF9079",
"# c #B8977F",
"$ c #78D1D5",
"% c gray74",
"& c #C2A38C",
"* c #CCAB93",
"= c #DCBEA7",
"- c #CACACA",
"; c #F4F3F3",
": c white",
"> c #571414",
/* pixels */
">>>>>>>>>>>>>>>>>>>>>>>>>>>>>>>>",
">>>>>>>>>oo::>>>>>>>>>>>>>>>>>>>",
">>>>>>>ooXX:::>>>>>>>>>>>>>>>>>>",
">>>>:::XXXXX>>>>>>>>>>>>>>>>>>>>",
">>>:$$::XXX>>>>>>>::>>>>>>>>>>>>",
">>>:: $:XXX>>;+:>>>::ooo>>>>>>>>",
">>>:  $:XX>>;+;::>>:XXXoo>>>>>>>",
">>>>:::XXX>:$$$;;:>>XXXXooo>>>>>",
">>>>o#XXXXX+: $+::>>>XXXXooo>>>>",
">>>>o#@X#XX;  $;+:>>>>XXXooo>>>>",
">>>>o@##@XXX;;+::%#>>:::XXooo>>>",
">>>>>o@###X%%+;:%#&#:$$::XXoo>>>",
">>>>>>o@###%-%%%-#&#:: $:XXooo>>",
">>>>>>>oX@#-%--%##&#:  $:XXooo>>",
">>>>>>>>oo@%-%-##&&&#:::XXXXoo>>",
">>>>>>>>>>>@-%%#&&&#&#XXX=Xooo>>",
">>>>>>>>>>>>%-##&##&&&=XX=*ooo>>",
">>>>>>>>>>>>-%#&&#XX#&=#*=*oo>>>",
">>>>>>>>>>>  %.&  >XX#&===ooo>>>",
">>>>>>>>>>.    .  >>XX##Xooo>>>>",
">>>>>>>>>...  .... >XXXXXooo>>>>",
">>>>>>>>>..  .>...O>>XXXXoo>>>>>",
">>>>>>>>>... >>>.O.>>XXooo>>>>>>",
">>>>>>>>>>... >>..O>>>ooo>>>>>>>",
">>>>>>>>>>>.. >..OO>>>>>>>>>>>>>",
">>>>>>>>>>>>  ...O>>>>>>>>>>>>>>",
">>>>>>>>>>>>>> ..>>>>>>>>>>>>>>>",
">>>>>>>>>>>>>>  >>>>>>>>>>>>>>>>",
">>>>>>>>>>>>>>  >>>>>>>>>>>>>>>>",
">>>>>>>>>>>>>>>>>>>>>>>>>>>>>>>>",
">>>>>>>>>>>>>>>>>>>>>>>>>>>>>>>>",
">>>>>>>>>>>>>>>>>>>>>>>>>>>>>>>>"
};
