/* XPM */
static const char *right[] = {
/* columns rows colors chars-per-pixel */
"32 32 17 1 ",
"  c black",
". c gray22",
"X c #471323",
"o c #591E30",
"O c gray46",
"+ c red",
"@ c #AF9079",
"# c #B8977F",
"$ c #78D1D5",
"% c gray74",
"& c #C2A38C",
"* c #CCAB93",
"= c #DCBEA7",
"- c #CACACA",
"; c #F4F3F3",
": c white",
"> c #571414",
/* pixels */
">>>>>>>>>>>>>>>>>>>>>>>>>>>>>>>>",
">>>>>>>>>>>>>>>>>>>>>>>>>>>>>>>>",
">>>>>>>>>>>>>>>>>>::oo>>>>>>>>>>",
">>>>>>>>>>>>>>>>>:::XXoo>>>>>>>>",
">>>>>>>>>>>>>>>>>>>XXXXX:::>>>>>",
">>>>>>>>>>>::>>>>>>>XXX::$$:>>>>",
">>>>>>>ooo::>>>:+;>>XXX:$ ::>>>>",
">>>>>>ooXXX:>>::;+;>>XX:$  :>>>>",
">>>>oooXXXX>>:;;$$$:>XXX:::>>>>>",
">>>oooXXXX>>>::+$ :+XXXXX#o>>>>>",
">>>oooXXX>>>>:+;$  ;XX#X@#o>>>>>",
">>oooXX:::>>#%::+;;%XX@##@o>>>>>",
">>ooXX::$$:#&#%:;+%%X###@o>>>>>>",
">oooXX:$ ::#&#-%%%-%###@o>>>>>>>",
">oooXX:$  :#&##%--%-#@Xo>>>>>>>>",
">ooXXXX:::#&&&##-%-%@oo>>>>>>>>>",
">oooX=XXX#&#&&&#%%-@>>>>>>>>>>>>",
">ooo*=XX=&&&##&##-%>>>>>>>>>>>>>",
">>oo*=*#=&#XX#&&#%->>>>>>>>>>>>>",
">>ooo===&#XX>  &.%  >>>>>>>>>>>>",
">>>oooX##XX>>  .    .>>>>>>>>>>>",
">>>oooXXXXX> ....  ...>>>>>>>>>>",
">>>>ooXXXX>>O...>.  ..>>>>>>>>>>",
">>>>>oooXX>>.O.>>> ...>>>>>>>>>>",
">>>>>>ooo>>>O..>> ...>>>>>>>>>>>",
">>>>>>>>>>>>OO..> ..>>>>>>>>>>>>",
">>>>>>>>>>>>>O...  >>>>>>>>>>>>>",
">>>>>>>>>>>>>>.. >>>>>>>>>>>>>>>",
">>>>>>>>>>>>>>>  >>>>>>>>>>>>>>>",
">>>>>>>>>>>>>>>  >>>>>>>>>>>>>>>",
">>>>>>>>>>>>>>>>>>>>>>>>>>>>>>>>",
">>>>>>>>>>>>>>>>>>>>>>>>>>>>>>>>"
};
