/* XPM */
static const char *left[] = {
/* columns rows colors chars-per-pixel */
"32 32 14 1 ",
"  c black",
". c gray14",
"X c gray22",
"o c #471323",
"O c #591E30",
"+ c red",
"@ c #9E8677",
"# c #AF9079",
"$ c #B8977F",
"% c #B1B1B1",
"& c #C2A38C",
"* c #F4F3F3",
"= c white",
"- c #571414",
/* pixels */
"--------------------------------",
"--------------==----------------",
"------------oooo-=--------------",
"---------oooooo--o==------------",
"--------oooooo*+*oooo-----------",
"-------ooooo%*+***Oooo----------",
"------oooOo%***=**oOooo*==------",
"-----oooOo%%+=*****Ooooo*==-----",
"-----ooOoo--*+*****oOooo*==-----",
"----oooOoo@#&*&&+*-ooOooo*=-----",
"----oooOooo$$&&&*$$ooOooo*------",
"---oooOooOoo&&$$$$oOoOooo-------",
"---oooOoOooo$o&&&ooOoOoooo------",
"---oooOoOooooo$o$oooOoOooo------",
"---oooOoOooooo$oooooOoOooo------",
"----ooOoOooooo$oooooOoOooo------",
"----ooOooOooo##oooooOoOooo------",
"----ooOoooo-  ##ooooOoOooo------",
"-----ooOoo-      ooOooOooo------",
"-----oooO-    .. oOooOooo-------",
"------ooo-   ....oOoOooo--------",
"-------ooo   .X..oOOoooo--------",
"--------ooo  -XXooOoooo---------",
"----------   --oooOooo----------",
"---------- ..-oooOoo------------",
"-----------..-.oooo-------------",
"-----------..-..  --------------",
"--------------XX ---------------",
"--------------XX----------------",
"--------------XX----------------",
"--------------------------------",
"--------------------------------"
};
